<svg width="37" height="160" viewBox="0 0 37 160" fill="none" xmlns="http://www.w3.org/2000/svg">
<rect width="36.9231" height="36.9231" rx="18.4615" fill="white"/>
<path d="M20.9429 10.124H26.1538V15.3349L16.2531 25.2356L12.0844 23.6724L10.5211 19.5036L20.9429 10.124Z" stroke="black" stroke-linecap="round" stroke-linejoin="round"/>
<path d="M16.5866 19.3787L20.7553 15.21" stroke="black" stroke-linecap="round" stroke-linejoin="round"/>
<path d="M12.1815 23.8123L9.5 26.5" stroke="black" stroke-linecap="round" stroke-linejoin="round"/>
<rect y="40.9231" width="36.9231" height="36.9231" rx="18.4615" fill="white"/>
<path d="M16.4616 50.9231V56.5231L11.7616 64.1231C11.0616 65.3231 11.8616 66.9231 13.2616 66.9231H23.6616C25.0616 66.9231 25.8616 65.3231 25.1616 64.1231L20.4616 56.5231V50.9231" stroke="black" stroke-linecap="round" stroke-linejoin="round"/>
<path d="M14.4615 50.9231H22.4615" stroke="black" stroke-linecap="round" stroke-linejoin="round"/>
<path d="M13.1816 61.9233H23.7416" stroke="black" stroke-linecap="round" stroke-linejoin="round"/>
<path d="M16.4615 64.9231C17.0138 64.9231 17.4615 64.4754 17.4615 63.9231C17.4615 63.3708 17.0138 62.9231 16.4615 62.9231C15.9093 62.9231 15.4615 63.3708 15.4615 63.9231C15.4615 64.4754 15.9093 64.9231 16.4615 64.9231Z" fill="black"/>
<path d="M20.4615 63.9233C21.0138 63.9233 21.4615 63.4756 21.4615 62.9233C21.4615 62.3711 21.0138 61.9233 20.4615 61.9233C19.9093 61.9233 19.4615 62.3711 19.4615 62.9233C19.4615 63.4756 19.9093 63.9233 20.4615 63.9233Z" fill="black"/>
<rect y="81.8462" width="36.9231" height="36.9231" rx="18.4615" fill="white"/>
<path d="M18.4615 107.846C18.4615 107.846 24.8615 104.646 24.8615 99.8462V94.2462L18.4615 91.8462L12.0615 94.2462V99.8462C12.0615 104.646 18.4615 107.846 18.4615 107.846Z" stroke="black" stroke-linecap="round" stroke-linejoin="round"/>
<path d="M18.4615 96.6462V99.8462" stroke="black" stroke-linecap="round" stroke-linejoin="round"/>
<path d="M18.4615 103.046H18.4702" stroke="black" stroke-linecap="round" stroke-linejoin="round"/>
<rect y="122.769" width="36.9231" height="36.9231" rx="18.4615" fill="white"/>
<path d="M18.4615 138.273V148.769" stroke="black" stroke-linecap="round" stroke-linejoin="round"/>
<path d="M18.4616 132.769L20.8615 135.169L18.4616 138.369L16.0616 135.169L18.4616 132.769Z" stroke="black" stroke-linecap="round" stroke-linejoin="round"/>
<path d="M20.4616 136.369L22.0616 137.169" stroke="black" stroke-linecap="round" stroke-linejoin="round"/>
<path d="M16.4616 136.369L14.8616 137.169" stroke="black" stroke-linecap="round" stroke-linejoin="round"/>
</svg>
